<svg width="219" height="219" viewBox="0 0 219 219" fill="none" xmlns="http://www.w3.org/2000/svg">
<path d="M61.48 139.4H78.92C82.3333 139.4 84.7333 138.707 86.12 137.32C87.6133 135.827 88.36 133.373 88.36 129.96V81.16C88.36 77.7467 87.6133 75.3467 86.12 73.96C84.7333 72.4667 82.3333 71.72 78.92 71.72H61.48C60.3067 71.72 59.72 72.3067 59.72 73.48V137.64C59.72 138.813 60.3067 139.4 61.48 139.4ZM39.4 153.64V57.48C39.4 55.24 40.52 54.12 42.76 54.12H82.28C90.6 54.12 97.0533 56.4133 101.64 61C106.333 65.48 108.68 71.88 108.68 80.2V130.92C108.68 139.24 106.333 145.693 101.64 150.28C97.0533 154.76 90.6 157 82.28 157H42.76C40.52 157 39.4 155.88 39.4 153.64ZM144.798 157H131.198C128.958 157 127.838 155.88 127.838 153.64V57.48C127.838 55.24 128.958 54.12 131.198 54.12H182.238C184.371 54.12 185.438 55.24 185.438 57.48V68.36C185.438 70.6 184.371 71.72 182.238 71.72H150.078C148.798 71.72 148.158 72.3067 148.158 73.48V98.28C148.158 99.56 148.798 100.2 150.078 100.2H177.438C179.678 100.2 180.798 101.32 180.798 103.56V114.28C180.798 116.627 179.678 117.8 177.438 117.8H150.078C148.798 117.8 148.158 118.387 148.158 119.56V153.64C148.158 155.88 147.038 157 144.798 157Z" fill="#BBBBBB"/>
</svg>
