<svg width="219" height="219" viewBox="0 0 219 219" fill="none" xmlns="http://www.w3.org/2000/svg">
<path d="M36.36 157H22.76C20.52 157 19.4 155.88 19.4 153.64V57.48C19.4 55.24 20.52 54.12 22.76 54.12H73.8C75.9333 54.12 77 55.24 77 57.48V68.36C77 70.6 75.9333 71.72 73.8 71.72H41.64C40.36 71.72 39.72 72.3067 39.72 73.48V98.28C39.72 99.56 40.36 100.2 41.64 100.2H69C71.24 100.2 72.36 101.32 72.36 103.56V114.28C72.36 116.627 71.24 117.8 69 117.8H41.64C40.36 117.8 39.72 118.387 39.72 119.56V153.64C39.72 155.88 38.6 157 36.36 157ZM126.951 157H104.551C102.205 157 100.871 155.88 100.551 153.64L83.4313 57.48C83.1113 55.24 84.2313 54.12 86.7913 54.12H103.431C105.885 54.12 107.165 55.24 107.271 57.48L116.551 136.36H117.671L133.031 57C133.351 55.08 134.471 54.12 136.391 54.12H154.311C156.338 54.12 157.511 55.0267 157.831 56.84L173.511 136.36H174.791L183.911 57.64C184.018 55.2933 185.298 54.12 187.751 54.12H204.391C206.951 54.12 208.071 55.2933 207.751 57.64L190.471 153.64C190.151 155.88 188.925 157 186.791 157H164.231C161.991 157 160.711 155.88 160.391 153.64L145.991 78.6H145.351L130.791 153.64C130.365 155.88 129.085 157 126.951 157Z" fill="#BBBBBB"/>
</svg>
