<svg width="219" height="219" viewBox="0 0 219 219" fill="none" xmlns="http://www.w3.org/2000/svg">
<path d="M73.16 157H56.2C47.7733 157 41.2667 154.76 36.68 150.28C32.0933 145.8 29.8 139.347 29.8 130.92V80.2C29.8 71.7733 32.0933 65.32 36.68 60.84C41.2667 56.36 47.7733 54.12 56.2 54.12H73.16C81.48 54.12 87.9333 56.4133 92.52 61C97.1067 65.48 99.4 71.88 99.4 80.2V85C99.4 87.3467 98.28 88.52 96.04 88.52H82.44C80.2 88.52 79.08 87.3467 79.08 85V81.16C79.08 77.7467 78.3867 75.3467 77 73.96C75.6133 72.4667 73.2133 71.72 69.8 71.72H59.4C56.0933 71.72 53.6933 72.4667 52.2 73.96C50.8133 75.3467 50.12 77.7467 50.12 81.16V129.96C50.12 133.373 50.8133 135.827 52.2 137.32C53.6933 138.707 56.0933 139.4 59.4 139.4H69.8C73.2133 139.4 75.6133 138.707 77 137.32C78.3867 135.827 79.08 133.373 79.08 129.96V119.88C79.08 118.707 78.4933 118.12 77.32 118.12H67.72C65.48 118.12 64.36 117 64.36 114.76V103.88C64.36 101.64 65.48 100.52 67.72 100.52H95.72C98.1733 100.52 99.4 101.747 99.4 104.2V130.92C99.4 139.24 97.1067 145.693 92.52 150.28C87.9333 154.76 81.48 157 73.16 157ZM135.548 157H121.948C119.708 157 118.588 155.88 118.588 153.64V57.48C118.588 55.24 119.708 54.12 121.948 54.12H135.548C137.788 54.12 138.908 55.24 138.908 57.48V103.08H139.228C140.081 100.52 141.734 97.2133 144.188 93.16L168.508 57.48C169.894 55.24 171.974 54.12 174.748 54.12H190.427C191.601 54.12 192.294 54.4933 192.508 55.24C192.828 55.88 192.561 56.7333 191.708 57.8L161.308 99.88L195.228 153C195.974 154.28 196.081 155.293 195.548 156.04C195.121 156.68 194.161 157 192.667 157H180.988C177.254 157 174.748 155.88 173.468 153.64L148.988 114.44L138.908 126.28V153.64C138.908 155.88 137.788 157 135.548 157Z" fill="#BBBBBB"/>
</svg>
