<svg width="400" height="400" viewBox="0 0 400 400" fill="none" xmlns="http://www.w3.org/2000/svg">
<rect width="400" height="400" rx="200" fill="black"/>
<path d="M200 325C182.781 325 166.569 321.71 151.362 315.131C136.156 308.551 122.917 299.626 111.645 288.355C100.374 277.083 91.4485 263.844 84.8691 248.638C78.2897 233.431 75 217.219 75 200C75 182.746 78.2897 166.524 84.8691 151.335C91.4485 136.147 100.374 122.917 111.645 111.645C122.917 100.374 136.156 91.4485 151.362 84.8691C166.569 78.2897 182.781 75 200 75C217.254 75 233.476 78.2897 248.665 84.8691C263.853 91.4485 277.083 100.374 288.355 111.645C299.626 122.917 308.551 136.147 315.131 151.335C321.71 166.524 325 182.746 325 200C325 217.219 321.71 233.431 315.131 248.638C308.551 263.844 299.626 277.083 288.355 288.355C277.083 299.626 263.853 308.551 248.665 315.131C233.476 321.71 217.254 325 200 325ZM265.26 174.02L290.866 165.491L297.774 140.865C290.177 128.567 280.547 118.09 268.884 109.433C257.22 100.776 244.088 94.3672 229.487 90.2066L205.876 106.695V132.407L265.26 174.02ZM134.972 174.02L194.124 132.407V106.695L170.566 90.2066C156.084 94.3672 143.07 100.776 131.526 109.433C119.982 118.09 110.47 128.567 102.991 140.865L110.292 165.491L134.972 174.02ZM115.295 276.442L138.604 274.181L153.241 250.392L132.176 186.04L105.698 177.101L86.7521 191.204C86.7521 207.983 88.6811 223.102 92.5392 236.561C96.3971 250.019 103.983 263.313 115.295 276.442ZM200 313.248C206.054 313.248 212.257 312.693 218.608 311.583C224.959 310.473 231.672 308.903 238.747 306.873L251.051 280.057L238.141 258.672H161.912L149.537 280.057L162.019 306.873C168.299 308.903 174.686 310.473 181.179 311.583C187.672 312.693 193.946 313.248 200 313.248ZM164.334 246.919H235.808L256.766 182.657L200 142.343L142.77 182.657L164.334 246.919ZM284.758 276.442C296.035 263.313 303.603 250.019 307.461 236.561C311.319 223.102 313.248 207.983 313.248 191.204L294.836 178.187L267.877 185.506L246.813 250.392L261.396 274.181L284.758 276.442Z" fill="white"/>
</svg>
