<svg width="219" height="219" viewBox="0 0 219 219" fill="none" xmlns="http://www.w3.org/2000/svg">
<path d="M93.72 54.12H117.4C119.64 54.12 120.76 55.24 120.76 57.48V153.64C120.76 155.88 119.64 157 117.4 157H104.28C102.04 157 100.92 155.88 100.92 153.64V77.8H100.28L83.96 131.4C83.32 133.533 81.9867 134.6 79.96 134.6H66.52C64.4933 134.6 63.16 133.533 62.52 131.4L45.88 77.64H45.24V153.64C45.24 154.92 45.0267 155.827 44.6 156.36C44.1733 156.787 43.2667 157 41.88 157H28.76C26.52 157 25.4 155.88 25.4 153.64V57.48C25.4 55.24 26.52 54.12 28.76 54.12H52.6C54.0933 54.12 55.1067 54.8667 55.64 56.36L72.6 112.84H73.56L90.68 56.36C91 54.8667 92.0133 54.12 93.72 54.12ZM158.454 157H144.854C142.614 157 141.494 155.88 141.494 153.64V57.48C141.494 55.24 142.614 54.12 144.854 54.12H195.894C198.027 54.12 199.094 55.24 199.094 57.48V68.36C199.094 70.6 198.027 71.72 195.894 71.72H163.734C162.454 71.72 161.814 72.3067 161.814 73.48V98.28C161.814 99.56 162.454 100.2 163.734 100.2H191.094C193.334 100.2 194.454 101.32 194.454 103.56V114.28C194.454 116.627 193.334 117.8 191.094 117.8H163.734C162.454 117.8 161.814 118.387 161.814 119.56V153.64C161.814 155.88 160.694 157 158.454 157Z" fill="#BBBBBB"/>
</svg>
